<?xml version="1.0" encoding="UTF-8"?><svg id="a" xmlns="http://www.w3.org/2000/svg" viewBox="0 0 160 160"><defs><style>.b{fill:#2ea84a;}.c{fill:#fff;}</style></defs><rect class="b" width="160" height="160"/><path class="c" d="M80,51.52c-5.97-12.84-18.98-21.74-34.08-21.74-5.34,0-10.42,1.11-15.01,3.12.89-.07,1.79-.11,2.69-.11,13.24,0,24.69,7.62,30.22,18.72h16.18s0,0,0,0h0Z"/><path class="c" d="M126.4,32.79c.91,0,1.81.04,2.69.11-4.6-2.01-9.68-3.12-15.01-3.12-15.09,0-28.11,8.9-34.08,21.74h0s16.18,0,16.18,0c0,0,0,0,0,0,5.52-11.1,16.98-18.72,30.22-18.72h0Z"/><path class="c" d="M107.04,21.15c-1.15-.34-2.33-.6-3.54-.78-.58-.09-1.17-.16-1.76-.2-.72-.06-1.46-.09-2.2-.09-.99,0-1.97.05-2.93.16-6.55.72-12.38,3.82-16.61,8.42h0c-4.23-4.6-10.06-7.7-16.61-8.42-.96-.11-1.94-.16-2.93-.16-.74,0-1.47.03-2.2.09-.59.05-1.18.12-1.76.2-1.21.18-2.39.44-3.54.78-1.14.33-2.25.75-3.32,1.22.44.04.89.09,1.33.14,13.03,1.65,23.64,9.78,29.03,20.74h0c5.38-10.96,16-19.09,29.03-20.74.45-.06.89-.1,1.33-.14-1.07-.48-2.18-.89-3.32-1.22h0Z"/><path class="c" d="M80,22.43h0c4.16-4.58,9.89-7.67,16.33-8.39.95-.11,1.91-.16,2.88-.16.44,0,.88.01,1.32.03-1.82-.76-3.73-1.29-5.7-1.56-.99-.13-1.99-.2-3.01-.2-.76,0-1.51.04-2.25.11-.61.06-1.21.15-1.81.26-1.24.23-2.45.56-3.64.99-3.05,1.11-5.88,2.86-8.39,5.13,1.55,1.1,2.98,2.37,4.26,3.77h0Z"/><polygon class="c" points="85.08 112.17 73.02 102.44 82.74 90.38 94.8 100.1 85.08 112.17 85.08 112.17"/><polygon class="c" points="76.32 133.19 86.04 121.13 98.11 130.85 88.38 142.91 76.32 133.19 76.32 133.19"/><polygon class="c" points="91.5 69.36 81.78 81.42 69.71 71.7 79.44 59.63 91.5 69.36 91.5 69.36"/><polygon class="c" points="111.83 113.83 102.1 125.89 90.04 116.17 99.76 104.1 111.83 113.83 111.83 113.83"/><path class="c" d="M51.03,84.72l-7.13-5.75c1.9-5.14,4.45-9.81,7.51-13.85l9.34,7.53-9.72,12.06h0Z"/><polygon class="c" points="77.78 86.38 68.05 98.45 55.99 88.72 65.71 76.66 77.78 86.38 77.78 86.38"/><polygon class="c" points="42.27 105.75 51.99 93.68 64.06 103.41 54.33 115.47 42.27 105.75 42.27 105.75"/><path class="c" d="M72.32,138.15l11.86,9.56c-1.27.09-2.57.13-3.9.13-5.25,0-9.97-.69-14.16-2l6.2-7.7h0Z"/><path class="c" d="M41.89,85.54l5.14,4.14-6.9,8.56c.17-4.4.78-8.66,1.77-12.71h0Z"/><polygon class="c" points="81.08 117.13 71.36 129.19 59.29 119.47 69.02 107.41 81.08 117.13 81.08 117.13"/><path class="c" d="M107.06,129.89l9.72-12.06,1.55,1.25c-1.46,5.56-3.67,10.45-6.65,14.54l-4.62-3.73h0Z"/><path class="c" d="M119.92,92.26c.37,2.79.56,5.65.56,8.57,0,.77,0,1.54-.03,2.29l-4.62,5.74-12.06-9.72,9.72-12.06,6.43,5.19h0Z"/><path class="c" d="M103.07,134.85l4.4,3.55c-3.65,3.4-8.09,5.96-13.34,7.55l8.94-11.1h0Z"/><path class="c" d="M48.41,132.97l6.89-8.54,12.06,9.72-7.37,9.15c-4.71-2.51-8.56-5.99-11.58-10.33h0Z"/><path class="c" d="M112.52,78.12l-12.06-9.72,5.59-6.94c3.57,3.81,6.61,8.4,8.97,13.56l-2.5,3.1h0Z"/><path class="c" d="M50.33,120.43l-5.31,6.59c-1.93-4.2-3.29-8.94-4.08-14.16l9.39,7.57h0Z"/><polygon class="c" points="98.8 95.14 86.74 85.42 96.46 73.36 108.53 83.08 98.8 95.14 98.8 95.14"/><path class="c" d="M55.61,60.33c1.28-1.27,2.62-2.45,4.02-3.52h13.91l-8.78,10.89-9.15-7.37h0Z"/><path class="c" d="M101.35,57.14l-5.85,7.26-9.42-7.59h14.85c.14.11.28.22.42.33h0Z"/></svg>